<svg xmlns="http://www.w3.org/2000/svg" viewBox="0 0 560 300" fill="none">
  <g fill="#25160a">
    <!-- Palm 1 (taller) -->
    <g transform="translate(180,150)">
      <path d="M-6,0 C-14,52 -18,112 -32,176 L-16,178 C-8,116 -2,54 8,2 Z"/>
      <path d="M0,-6 C-8,-48 -28,-78 -62,-96 C-42,-66 -30,-30 -6,-2 Z"/>
      <path d="M0,-6 C-32,-32 -70,-42 -106,-38 C-68,-48 -30,-42 -2,-8 Z"/>
      <path d="M0,-2 C-36,-6 -74,8 -102,32 C-66,10 -28,4 0,8 Z"/>
      <path d="M0,-8 C10,-50 32,-78 68,-94 C44,-64 32,-28 8,-2 Z"/>
      <path d="M0,-6 C34,-32 74,-42 110,-36 C70,-48 30,-44 4,-8 Z"/>
      <path d="M0,-2 C36,-6 76,8 104,34 C66,10 28,4 2,8 Z"/>
      <path d="M0,-8 C2,-46 2,-72 0,-104 C-2,-72 -2,-46 -2,-8 Z"/>
    </g>
    <!-- Palm 2 (shorter, right) -->
    <g transform="translate(410,182) scale(0.8)">
      <path d="M-6,0 C-12,46 -16,100 -28,158 L-14,160 C-6,102 -2,48 8,2 Z"/>
      <path d="M0,-6 C-8,-44 -26,-72 -58,-88 C-40,-60 -30,-28 -6,-2 Z"/>
      <path d="M0,-6 C-30,-30 -66,-40 -100,-36 C-64,-46 -28,-40 -2,-8 Z"/>
      <path d="M0,-2 C-34,-6 -70,8 -96,30 C-62,10 -26,4 0,8 Z"/>
      <path d="M0,-8 C10,-46 30,-72 64,-88 C42,-60 30,-26 8,-2 Z"/>
      <path d="M0,-6 C32,-30 70,-40 104,-34 C66,-46 30,-42 4,-8 Z"/>
      <path d="M0,-2 C34,-6 72,8 98,32 C62,10 26,4 2,8 Z"/>
      <path d="M0,-8 C2,-44 2,-68 0,-98 C-2,-68 -2,-44 -2,-8 Z"/>
    </g>
  </g>
</svg>
